<?xml version="1.0" encoding="utf-8"?>
<!-- Generator: Adobe Illustrator 22.1.0, SVG Export Plug-In . SVG Version: 6.00 Build 0)  -->
<svg version="1.1" id="Layer_1" xmlns="http://www.w3.org/2000/svg" xmlns:xlink="http://www.w3.org/1999/xlink" x="0px" y="0px"
	 viewBox="0 0 100 100" style="enable-background:new 0 0 100 100;" xml:space="preserve">
<style type="text/css">
	.st0{fill:#FFFFFF;}
	.st1{fill:#E62B1E;}
	.st2{fill-rule:evenodd;clip-rule:evenodd;fill:#FFFFFF;}
	.st3{fill:none;}
	.st4{clip-path:url(#SVGID_2_);fill:#FFFFFF;}
	.st5{clip-path:url(#SVGID_4_);fill:#D4D5D9;}
	.st6{clip-path:url(#SVGID_6_);fill:#D4D5D9;}
	.st7{clip-path:url(#SVGID_8_);fill:#D4D5D9;}
	.st8{clip-path:url(#SVGID_10_);fill:#D4D5D9;}
	.st9{clip-path:url(#SVGID_12_);fill:#D4D5D9;}
	.st10{clip-path:url(#SVGID_14_);fill:#D4D5D9;}
	.st11{clip-path:url(#SVGID_16_);fill:#D4D5D9;}
	.st12{clip-path:url(#SVGID_18_);fill:#D4D5D9;}
	.st13{clip-path:url(#SVGID_20_);fill:#D4D5D9;}
	.st14{fill:#202020;}
</style>
<g>
	<path class="st14" d="M76.5,19.7H65.8v-6.9c0-1.4-1.1-2.5-2.5-2.5c-0.1,0-0.2,0-0.3,0.1c0,0-0.1-0.1-0.2-0.1H37.3
		c-1.4,0-2.5,1.1-2.5,2.5v6.9H24.1c-3.1,0-5.5,2.4-5.5,5.5v8.9h4.7v50.8c0,3.1,2.3,5.4,5.4,5.4h43c3.1,0,5.5-2.3,5.5-5.4V34.1h4.7
		v-8.9C81.9,22.1,79.5,19.7,76.5,19.7L76.5,19.7z M39.8,15.2h21v4.5h-21V15.2z M72.2,84.9c0,0.3-0.1,0.5-0.5,0.5h-43
		c-0.3,0-0.5-0.1-0.5-0.5V34.1h43.9V84.9z M76.9,29.1H23.7v-4c0-0.3,0.1-0.5,0.5-0.5h52.3c0.3,0,0.5,0.2,0.5,0.5V29.1z M76.9,29.1"
		/>
	<rect x="59.4" y="39.9" class="st14" width="5" height="41"/>
	<rect x="47.8" y="39.9" class="st14" width="5" height="41"/>
	<rect x="36.3" y="39.9" class="st14" width="5" height="41"/>
</g>
</svg>
